<?xml version="1.0" encoding="utf-8"?>
<!DOCTYPE svg PUBLIC "-//W3C//DTD SVG 1.0//EN" "http://www.w3.org/TR/2001/REC-SVG-20010904/DTD/svg10.dtd">
<svg version="1.0" xmlns="http://www.w3.org/2000/svg" width="512px" height="512px" viewBox="0 0 512 512" preserveAspectRatio="xMidYMid meet">
 <g fill="#000000">
  <path d="M41 489.1 c-7.8 -2.4 -14.7 -7.5 -19.4 -14.4 -7.1 -10.4 -6.6 3.2 -6.4 -203.8 l0.3 -186.4 2.8 -6 c3.6 -7.8 10.4 -14.6 18.1 -18.2 6 -2.8 6.4 -2.8 27.9 -3.1 l21.7 -0.4 0 -15.4 c0 -14.1 0.2 -15.6 2 -17.4 1.1 -1.1 3.2 -2 4.7 -2 6.3 0.1 7.3 2.8 7.3 20.4 l0 14.6 38 0 38 0 0 -15.3 c0 -17.5 0.7 -19.7 6.4 -19.7 6 0 6.6 1.7 6.6 19.3 l0 15.7 38.5 0 38.5 0 0 -15.8 c0 -17.7 0.5 -19.2 6.8 -19.2 5.5 0 6.2 2.4 6.2 19.7 l0 15.3 38 0 38 0 0 -14.6 c0 -17.6 1 -20.3 7.3 -20.4 1.5 0 3.6 0.9 4.7 2 1.8 1.8 2 3.3 2 17.4 l0 15.4 21.8 0.4 c21.4 0.3 21.8 0.3 27.8 3.1 7.7 3.6 14.5 10.4 18.1 18.2 l2.8 6 0.3 68.1 0.3 68.2 4.7 -1.8 c7 -2.6 13.4 -3.2 20.3 -2 24.6 4.5 37.8 28.6 28.9 52.5 -2.1 5.5 -4.4 8.1 -28.1 32 l-25.9 26.1 0 65 c0 72.3 0 72.4 -6.6 82.1 -3.9 5.6 -7.4 8.7 -14.4 12.4 l-4.5 2.4 -185.5 0.2 c-102 0.1 -186.6 -0.2 -188 -0.6z m368.8 -17.6 c4.7 -2 7.8 -5 10.5 -10 2.2 -3.9 2.2 -4.9 2.5 -57 l0.3 -53 -33.3 33.1 c-24.7 24.5 -34.5 33.7 -38.1 35.3 -2.6 1.3 -16.3 5.4 -30.5 9.2 -30.5 8.2 -36.5 8.7 -41.3 4 -4.6 -4.7 -4.1 -10 4.1 -41 3.9 -14.6 8 -28.5 9.2 -31 1.6 -3.4 18.8 -21.3 66 -68.6 l63.8 -64 0 -22.8 0 -22.7 -195.5 0 -195.5 0 0 135.1 c0 94 0.3 136.3 1.1 139.3 1.4 5.6 6.2 11.4 11.3 13.7 3.9 1.8 11.1 1.9 182.9 1.9 159.1 0 179.2 -0.2 182.5 -1.5z m-90.6 -64.6 c8.4 -2.2 15.6 -4.4 16 -4.8 0.4 -0.4 -4.8 -6.2 -11.7 -13.1 -8.3 -8.3 -12.6 -11.9 -12.9 -10.9 -0.8 2.2 -8.6 31.6 -8.6 32.3 0 1 1.4 0.7 17.2 -3.5z m82.1 -66.7 l46.7 -46.7 -14.3 -14.3 -14.2 -14.2 -47 47 -47 47 14 14 c7.7 7.7 14.2 14 14.5 14 0.3 0 21.5 -21 47.3 -46.8z m75.4 -76.6 c2.8 -5.5 3.2 -8.4 1.8 -13.4 -2.7 -8.9 -11.5 -16.2 -19.6 -16.2 -5.2 0.1 -11.8 3.5 -17.7 9.3 l-5.2 5.2 14.2 14.2 14.3 14.3 5.3 -5.3 c2.9 -2.8 6.1 -6.5 6.9 -8.1z m-53.7 -135.7 c0 -23.3 -0.4 -35.4 -1.2 -38.1 -0.6 -2.2 -2.9 -5.9 -5.1 -8.4 -5.6 -6.3 -10.4 -7.5 -29.3 -7.2 l-14.9 0.3 -0.3 3.7 c-0.3 3.5 -0.1 3.8 4.6 6.2 6.3 3.2 12.6 10.4 14.8 16.8 2.4 7.3 1.6 23.7 -1.4 29.5 -3 5.8 -8.6 11.1 -14.1 13.6 -6.4 2.8 -17.2 3.4 -24.6 1.2 -7.5 -2.2 -16.3 -10.5 -18.8 -17.9 -2.1 -6.3 -2.2 -19.5 -0.2 -26.3 2 -6.6 8.9 -14.5 15 -17 4.3 -1.7 4.5 -2 4.5 -6 l0 -4.3 -34.5 0 -34.5 0 0 5.3 0 5.2 5.8 3.1 c17.4 9.3 20.5 37.6 5.7 51.3 -6.7 6.2 -10.5 7.5 -22 7.5 -11.5 0.1 -16.4 -1.6 -23 -8.2 -6.3 -6.2 -8 -11.1 -8 -23.2 0 -9.5 0.3 -11 2.7 -15.6 3.1 -5.9 9.5 -11.8 14.4 -13.4 3.3 -1.1 3.4 -1.3 3.4 -6.6 l0 -5.4 -34.5 0 -34.5 0 0 5.4 c0 5.3 0.1 5.5 3.4 6.6 4.9 1.6 10.8 7 14.1 13.1 2.8 5 3 6.1 3 15.9 0 12 -1.7 16.8 -8.3 23.5 -6.1 6.2 -11.1 8 -22.7 7.9 -11.6 0 -15.1 -1.2 -21.8 -7.3 -6.8 -6.3 -9.1 -12.5 -9.1 -24.1 0 -14.1 4.3 -22.1 14.9 -27.6 l5.5 -2.9 0 -5.2 0 -5.3 -34.5 0 -34.5 0 0 5.3 0 5.2 4.5 1.8 c5.9 2.5 12.9 10.3 15 16.8 1.3 3.8 1.6 7.5 1.3 14.3 -0.3 8 -0.8 9.9 -3.4 14.6 -5.9 10.5 -16.4 15.7 -30 14.8 -12.9 -0.9 -23.2 -8 -26.8 -18.6 -2.4 -6.9 -2.1 -21.5 0.5 -27.2 2.6 -5.8 8.2 -11.5 14.2 -14.6 l4.8 -2.5 -0.3 -4.7 -0.3 -4.7 -14 -0.3 c-18.6 -0.4 -23.3 0.6 -29.5 6.6 -3.1 3 -5.2 6.1 -5.9 8.7 -0.7 2.5 -1.1 16.6 -1.1 38.3 l0 34.2 195.5 0 195.5 0 0 -34.1z m-323.2 -6.5 c4.4 -4.6 4.3 -8.2 -0.3 -12.9 -4.7 -4.6 -8.1 -4.7 -12.9 -0.1 -4.5 4.2 -4.8 8.1 -0.9 12.6 4.9 5.9 8.7 6 14.1 0.4z m86.9 2.6 c3.9 -2.3 6.7 -7.4 5.9 -10.5 -0.8 -3.1 -7.1 -8.5 -10 -8.5 -2.9 0 -7.2 3.3 -9.2 7.1 -1.3 2.7 -1.3 3.3 0.2 6.5 1.6 3.3 6.5 7.4 8.9 7.4 0.6 0 2.4 -0.9 4.2 -2z m89.9 0.1 c1.7 -1 3.8 -3.5 4.8 -5.5 1.5 -3.2 1.5 -3.8 0.2 -6.5 -1.9 -3.6 -6.2 -7.1 -8.8 -7.1 -3.2 0 -7.5 3.1 -9.4 6.6 -1.7 3.1 -1.7 3.5 -0.1 6.9 1.5 3.2 6.8 7.5 9.2 7.5 0.6 0 2.4 -0.9 4.1 -1.9z m92.2 -2.7 c2.3 -2.4 3.2 -4.3 3.2 -6.6 0 -4.2 -3.1 -9.3 -6.8 -11.2 -2.5 -1.3 -3.2 -1.3 -6.1 0.2 -3.8 1.8 -7.1 6.5 -7.1 10 0 5.7 7.1 12.9 11.5 11.6 1.1 -0.3 3.5 -2.1 5.3 -4z"/>
  <path d="M79.2 442.4 c-3.9 -1.9 -5.9 -3.8 -8 -7.2 l-2.7 -4.7 0 -36.5 c0 -41.1 -0.2 -39.9 7.8 -46.4 l3.9 -3.1 37.4 -0.3 c35.7 -0.3 37.5 -0.2 41.3 1.7 2.1 1.1 4.8 3.2 5.9 4.6 1.7 2.1 2.8 2.5 7.1 2.5 7.4 0 10.1 2.8 10.1 10.5 0 6.1 -0.9 7.4 -9.3 13.8 l-3.7 2.8 0 25 c0 18.7 -0.3 25.8 -1.4 28.2 -1.7 4.3 -7.6 9.3 -12.3 10.6 -2.3 0.7 -17 1.1 -37.4 1.1 l-33.5 0 -5.2 -2.6z m68.8 -20.3 c1 -2.1 1.4 -27.1 0.4 -27.1 -0.3 0 -6.1 4 -12.8 8.9 -14.4 10.5 -15.5 11.1 -19.8 11.1 -6.1 0 -7.8 -1.2 -14.8 -10 l-7 -8.8 0 -6.5 c0 -8.1 1.6 -9.7 9.9 -9.7 5.1 0 5.7 0.3 9.6 4.3 l4.2 4.4 15.1 -11 c12 -8.7 14.9 -11.3 14.1 -12.4 -0.9 -1 -6.8 -1.3 -28 -1.3 -23 0 -27 0.2 -28.3 1.6 -1.4 1.3 -1.6 5.4 -1.6 28.8 0 19.8 0.3 27.5 1.2 28.4 0.9 0.9 8.7 1.2 29 1.2 26.4 0 27.8 -0.1 28.8 -1.9z"/>
  <path d="M219.1 422.4 c-3.1 -3.9 -2.9 -11.7 0.4 -14.9 2.4 -2.5 2.6 -2.5 21 -2.5 18.4 0 18.6 0 21 2.5 2.1 2 2.5 3.4 2.5 8 0 9.4 -0.4 9.5 -23.4 9.5 l-19.5 0 -2 -2.6z"/>
  <path d="M222.4 383 c-3.5 -1.4 -5.4 -5 -5.4 -10.3 0 -3.8 0.5 -5.3 2.5 -7.2 2.4 -2.5 2.6 -2.5 21 -2.5 18.4 0 18.6 0 21 2.5 2 1.9 2.5 3.4 2.5 7.5 0 6.4 -1.1 8.5 -5.1 9.9 -3.8 1.3 -33.4 1.4 -36.5 0.1z"/>
  <path d="M78.8 313 c-4.8 -2.6 -8.4 -7.3 -9.8 -13 -0.7 -3 -1 -15.5 -0.8 -38 0.3 -32.6 0.4 -33.6 2.6 -37.7 1.2 -2.4 4.1 -5.5 6.4 -7 l4.1 -2.8 35.6 -0.3 c39.2 -0.3 40.9 -0.1 46.6 5.8 2.5 2.7 3.5 3 8.6 3 7.6 0 9.9 2.2 9.9 9.3 0 6.3 -0.9 7.8 -7.5 12.7 l-5.5 4.1 0 26.2 0 26.3 -2.9 4.6 c-1.9 3 -4.4 5.2 -7.3 6.7 -4.3 2 -5.6 2.1 -40.4 2.1 -33.6 -0.1 -36.1 -0.2 -39.6 -2z m68.6 -19.9 c1.4 -1.6 1.6 -3.8 1.4 -15.5 l-0.3 -13.7 -13.9 10 c-13 9.5 -14.1 10.1 -18.6 10.1 -2.7 0 -5.6 -0.3 -6.4 -0.6 -0.9 -0.4 -4.8 -4.5 -8.6 -9.1 l-7 -8.5 0 -6.4 c0 -5.6 0.3 -6.5 2.8 -8.4 2.2 -1.8 3.6 -2.1 8.1 -1.8 4.9 0.4 5.8 0.9 9 4.7 l3.6 4.2 14.5 -10.6 c8 -5.8 14.7 -11 14.8 -11.5 0.5 -1.5 -55.1 -1.3 -56.6 0.2 -0.9 0.9 -1.2 8.6 -1.2 28.4 0 23.4 0.2 27.5 1.6 28.8 1.3 1.4 5.3 1.6 28.3 1.6 24.9 0 26.9 -0.1 28.5 -1.9z"/>
  <path d="M220 294.2 c-2.7 -2.2 -3.8 -9.8 -2 -14.1 0.6 -1.6 2.4 -3.4 3.9 -4 1.8 -0.8 16.4 -1.1 48.3 -0.9 53.1 0.3 49.8 -0.3 49.8 10.2 0 3.4 -0.4 6.6 -0.8 7.2 -2.1 3.2 -5.3 3.4 -51 3.4 -42.7 0 -46.1 -0.1 -48.2 -1.8z"/>
  <path d="M220 252.2 c-1.8 -1.4 -2.4 -3.2 -2.8 -7.4 -0.4 -4.7 -0.1 -5.8 2.1 -8.4 l2.5 -2.9 77.5 0 c89.7 0 81.7 -1 81.7 10.2 0 11.3 8.2 10.3 -81.4 10.3 -73.6 0 -77.5 -0.1 -79.6 -1.8z"/>
 </g>
 <g fill="#ff6f5c">
  <path d="M87.6 296.4 c-1.4 -1.3 -1.6 -5.6 -1.6 -31.8 0 -22.1 0.3 -30.5 1.2 -31.4 0.9 -0.9 9.4 -1.2 32 -1.2 29.4 0 30.8 0.1 31.8 1.9 0.5 1.1 1 2.6 1 3.3 -0.1 1 -18.6 15 -33.8 25.5 -1.5 1.1 -2.3 0.6 -5.9 -4.1 -5 -6.3 -8.4 -7.7 -12.2 -4.8 -1.8 1.3 -2.7 3 -2.9 5.4 -0.3 3 0.6 4.6 6.7 12 7 8.5 8.6 9.8 12.1 9.8 1 0 9.2 -5.4 18.3 -12 9.1 -6.6 16.8 -12 17.1 -12 0.3 0 0.6 8.5 0.6 18.8 0 17 -0.2 19.1 -1.8 20.5 -1.6 1.5 -5.3 1.7 -31.5 1.7 -25.5 0 -29.8 -0.2 -31.1 -1.6z"/>
 </g>
 <g fill="#986de7">
  <path d="M297 415.3 c0 -1.6 11.3 -43.2 12.1 -44.4 0.6 -1 5.2 2.9 17.4 15.1 9.1 9.1 16.5 16.8 16.5 17.2 0 0.9 -6.4 2.9 -26.6 8.3 -17.5 4.6 -19.4 5 -19.4 3.8z"/>
  <path d="M447.2 265.7 l-17.2 -17.2 6.7 -6.7 c8.1 -8 14.4 -11.1 22.4 -11.1 10.8 0 19.4 6.6 22.5 17.2 3.1 10.5 0.4 17.8 -10.3 28.3 l-6.8 6.8 -17.3 -17.3z"/>
 </g>
 <g fill="#ffd364">
  <path d="M87.2 425.8 c-0.9 -0.9 -1.2 -9.3 -1.2 -31.4 0 -26.2 0.2 -30.5 1.6 -31.8 1.3 -1.4 5.6 -1.6 31.3 -1.6 27.6 0 29.9 0.1 31.4 1.8 3.7 4 2.4 5.5 -14.5 17.9 -9 6.5 -16.9 12.3 -17.6 12.7 -0.9 0.6 -3 -1 -6.6 -4.8 -5.6 -6 -8.3 -6.9 -12.4 -4 -1.6 1.1 -2.2 2.5 -2.2 5.1 0 2.9 1.3 5.1 7 12.3 7.6 9.5 10.2 11 14.8 8.6 1.5 -0.8 9.5 -6.4 17.7 -12.5 l15 -10.9 0.3 17.9 c0.1 11.2 -0.2 18.7 -0.8 19.9 -1 1.9 -2.2 2 -31.8 2 -22.6 0 -31.1 -0.3 -32 -1.2z"/>
 </g>
 <g fill="#cdd5d7">
  <path d="M29 127.8 c0 -23.9 0.4 -38.7 1.1 -41.3 0.7 -2.6 2.8 -5.7 5.9 -8.7 6.4 -6.2 10.6 -7 32.5 -6.6 l17 0.3 0.3 7.7 0.3 7.7 -4.8 2.5 c-10.2 5.2 -16.2 14.6 -16.3 25.2 0 11.8 5.5 21 15.3 25.8 7.2 3.6 13.1 4.2 20 2.2 15.5 -4.5 24.3 -21.2 19.3 -36.4 -2.2 -6.6 -9.2 -14.4 -15.1 -16.9 l-4.5 -1.8 0 -8.2 0 -8.3 37.5 0 37.5 0 0 8.3 0 8.2 -5.5 2.9 c-9.6 5 -14.8 13.7 -14.8 24.6 0 8.4 3 15.6 9 21.1 6 5.5 10.4 7.2 18.8 7.3 11.5 0 20.5 -5.7 25.7 -16.3 3.5 -7.1 3.2 -17.8 -0.7 -25 -3.3 -6 -9.2 -11.5 -14.1 -13.1 l-3.4 -1.2 0 -8.4 0 -8.4 37.5 0 37.5 0 0 8.4 0 8.4 -3.4 1.2 c-4.9 1.6 -11.3 7.5 -14.4 13.4 -3.5 6.7 -3.8 17.7 -0.6 24.6 2.7 5.7 8.3 11.3 14.3 14.2 5.7 2.8 16.6 3 22.4 0.4 21.5 -9.5 22.9 -40.4 2.3 -51.2 l-5.6 -2.9 0 -8.2 0 -8.3 37.5 0 37.5 0 0 7.3 0 7.2 -4.5 1.8 c-6.1 2.5 -13 10.4 -15 17 -3.6 12.1 -1.1 22.2 7.5 30.9 6.6 6.6 14 9.5 21.7 8.4 14.3 -1.9 24.1 -12.6 25.1 -27.2 0.8 -12.7 -5.1 -23.5 -16 -29 l-4.9 -2.5 0.3 -6.7 0.3 -6.7 17.9 -0.3 c22.2 -0.3 26.5 0.7 32.3 7.2 2.2 2.5 4.5 6.2 5.1 8.4 0.8 2.7 1.2 15.5 1.2 41.1 l0 37.1 -198.5 0 -198.5 0 0 -37.2z"/>
 </g>
 <g fill="#ffffff">
  <path d="M41.4 474.1 c-5.1 -2.3 -9.9 -8.1 -11.3 -13.7 -0.8 -3 -1.1 -46.1 -1.1 -142.3 l0 -138.1 198.5 0 198.5 0 0 25.7 0 25.8 -63.8 64 c-47.2 47.3 -64.4 65.2 -66 68.6 -2.5 5.3 -16.2 56.1 -16.2 60.2 0 4.1 4.9 8.7 9.2 8.7 4.5 0 53.6 -13.3 59.5 -16.1 3.6 -1.6 14 -11.3 41.1 -38.3 l36.3 -36.1 -0.3 59 c-0.3 58.2 -0.3 59.1 -2.5 63 -2.7 5 -5.8 8 -10.5 10 -3.3 1.3 -23.7 1.5 -185.5 1.5 -174.7 0 -182 -0.1 -185.9 -1.9z m110.9 -33.2 c3.9 -1.1 9.9 -5.7 12 -9.3 0.8 -1.4 1.4 -10.5 1.7 -28.6 l0.5 -26.4 5.7 -4.4 c6.2 -4.6 7.8 -7.8 5.9 -11.8 -1.7 -3.8 -5.5 -5.1 -9.5 -3.1 l-3.4 1.6 -2.3 -3.7 c-1.3 -2 -4.2 -4.7 -6.4 -5.9 -4 -2.3 -4.2 -2.3 -38.7 -2.1 l-34.6 0.3 -3.9 3.1 c-7.9 6.5 -7.8 5.7 -7.8 43.4 l0 33.5 2.7 4.7 c2.1 3.4 4.1 5.3 8 7.2 l5.2 2.6 30.5 0 c18.3 0 32.1 -0.4 34.4 -1.1z m106.7 -20.9 c2.7 -2.7 2.5 -6.6 -0.5 -9.5 -2.4 -2.4 -2.8 -2.5 -18 -2.5 -15.2 0 -15.6 0.1 -18 2.5 -3 3 -3.1 5.4 -0.4 8.9 l2 2.6 16.5 0 c15.1 0 16.6 -0.2 18.4 -2z m-3.1 -40.1 c5.5 -1.9 6.8 -7.3 2.6 -11.4 -2.4 -2.4 -2.8 -2.5 -18 -2.5 -15.2 0 -15.6 0.1 -18 2.5 -1.4 1.3 -2.5 3.2 -2.5 4.2 0 2.5 2.8 6.3 5.4 7.3 3.1 1.3 26.8 1.2 30.5 -0.1z m-100.1 -70 c2.9 -1.5 5.4 -3.7 7.3 -6.7 l2.9 -4.6 0 -26.3 0 -26.2 5.5 -4.1 c7.9 -5.8 9.4 -9.6 5.5 -13.8 -2.3 -2.4 -6.9 -2.9 -9.9 -1 -1.6 0.9 -2.4 0.5 -5.5 -3 -6.5 -7.1 -7.8 -7.3 -44.7 -7 l-32.6 0.3 -4.1 2.8 c-2.3 1.5 -5.2 4.6 -6.4 7 -2.2 4.1 -2.3 5.2 -2.6 34.7 -0.2 20.4 0.1 32 0.8 35 1.4 5.7 5 10.4 9.8 13 3.4 1.8 5.9 1.9 36.6 2 31.7 0 33.1 -0.1 37.4 -2.1z m157.5 -18 c3 -1.6 3.7 -2.8 3.7 -6.5 0 -1.9 -0.8 -3.8 -2.1 -5 -2 -1.8 -4.4 -1.9 -44.7 -2.2 -29.7 -0.2 -43.4 0.1 -45.3 0.9 -5.2 2.1 -5.9 10 -1.2 12.8 2.6 1.5 86.7 1.5 89.6 0z m62.7 -42.9 c2.7 -2.7 2.6 -8.1 -0.1 -10.6 -2 -1.8 -4.8 -1.9 -76.6 -1.9 l-74.5 0 -2.5 2.9 c-2.8 3.3 -2.5 7 0.9 9.9 1.9 1.6 7 1.7 76.4 1.7 73.1 0 74.4 0 76.4 -2z"/>
  <path d="M336.5 376 l-17 -17 50 -50 50 -50 17.2 17.2 17.3 17.3 -49.7 49.7 c-27.4 27.4 -50 49.8 -50.3 49.8 -0.3 0 -8.2 -7.7 -17.5 -17z"/>
  <path d="M87.4 128.1 c-3.2 -1.4 -7.2 -6.8 -8 -10.6 -1.9 -10.5 9.4 -19.5 19 -15 9.1 4.3 11 15.9 3.7 22.9 -2.3 2.2 -4.2 3 -7.8 3.2 -2.6 0.2 -5.7 0 -6.9 -0.5z"/>
  <path d="M175.4 127.1 c-6.2 -3.8 -8.2 -13.1 -4.1 -19.2 5.2 -7.9 14.1 -8.7 20.9 -1.9 3.4 3.3 3.8 4.3 3.8 8.6 0 8.6 -5.5 14.4 -13.7 14.4 -2.1 0 -5.2 -0.9 -6.9 -1.9z"/>
  <path d="M265.3 127 c-4.1 -2.4 -6.3 -6.7 -6.3 -12 0 -5.6 2.6 -9.6 7.8 -12.1 11.8 -5.8 23.3 6.6 17.5 18.8 -3.2 6.9 -12.3 9.4 -19 5.3z"/>
  <path d="M355.2 127 c-9.4 -5.9 -8.7 -21.7 1.1 -26.3 7.4 -3.6 14.4 -0.8 17.9 6.9 4.3 9.8 -1 20.2 -10.8 21.1 -3.8 0.3 -5.7 -0.1 -8.2 -1.7z"/>
 </g>
</svg>